<svg xmlns="http://www.w3.org/2000/svg" version="1.1" xmlns:xlink="http://www.w3.org/1999/xlink" width="2000" height="392" viewBox="0 0 2000 392"><svg xml:space="preserve" width="2000" height="392" data-version="2" data-id="lg_sWof2rlOYYcytZ3L4k" viewBox="0 0 472 392" x="0" y="0"><rect width="100%" height="100%" fill="transparent"></rect><circle r="165.97" fill="#7c1ec5" transform="translate(171.7 171.14)scale(1.0073)"></circle><path fill="#a841c4" d="m109.579 341.763 18.32-327.69h46.03l114.35 249.97 109.39-249.97h50.49l18.32 327.69h-50.49l-13.37-281.66h-1.98l-124.74 281.66h-6.93l-122.26-270.27h-1.98l-13.37 270.27Z" paint-order="stroke"></path><rect width="356.9" height="327.69" x="-178.45" y="-163.84" fill="none" rx="0" ry="0" transform="translate(288.53 178.42)"></rect><path fill="#7c1ec5" d="m173.499 386.642 1.23-21.85h3.06l7.63 16.67 7.29-16.67h3.37l1.22 21.85h-3.37l-.89-18.78h-.13l-8.32 18.78h-.46l-8.15-18.02h-.13l-.89 18.02Z"></path><rect width="23.8" height="21.85" x="-11.9" y="-10.93" fill="none" rx="0" ry="0" transform="translate(185.9 376.22)"></rect><path fill="#7c1ec5" d="M203.109 386.642v-21.85h13.23l-.33 2.22-6.14-1.03q-.96 0-1.78.15-.83.15-1.78.41v8.02h7.32v1.26h-7.32v9.63l10.23-1.02-.33 2.21Z"></path><rect width="13.43" height="21.85" x="-6.71" y="-10.93" fill="none" rx="0" ry="0" transform="translate(210.32 376.22)"></rect><path fill="#7c1ec5" d="M227.329 387.042q-1.95 0-3.68-.47-1.73-.46-2.69-.82v-1.55q.56.26 1.52.68.95.41 2.11.7 1.15.3 2.24.3 2.18 0 3.52-1.14 1.33-1.14 1.33-3.21 0-1.29-.76-2.22-.75-.92-1.96-1.68-1.2-.76-2.56-1.47-1.35-.71-2.55-1.55-1.21-.84-1.97-1.98-.76-1.14-.76-2.69 0-1.28.7-2.55.69-1.28 2.21-2.13 1.52-.86 3.99-.86 1.35 0 2.94.33 1.58.33 2.74.69l-.33 2.25q-1.92-.83-3.8-1.37-1.88-.55-3.83-.55-.95.46-1.33 1.21-.38.74-.38 1.63 0 1.32.79 2.33.79 1 2.06 1.84 1.27.85 2.68 1.64 1.4.79 2.67 1.71 1.27.93 2.06 2.08.79 1.16.79 2.71 0 1.71-.86 3.12-.85 1.4-2.57 2.21-1.72.81-4.32.81"></path><rect width="14.12" height="22.64" x="-7.06" y="-11.32" fill="none" rx="0" ry="0" transform="translate(228.52 376.22)"></rect><path fill="#7c1ec5" d="M245.679 387.042q-1.95 0-3.68-.47-1.74-.46-2.69-.82v-1.55q.56.26 1.51.68.96.41 2.12.7 1.15.3 2.24.3 2.18 0 3.52-1.14 1.33-1.14 1.33-3.21 0-1.29-.76-2.22-.76-.92-1.96-1.68-1.21-.76-2.56-1.47t-2.56-1.55q-1.2-.84-1.96-1.98-.76-1.14-.76-2.69 0-1.28.69-2.55.7-1.28 2.22-2.13 1.51-.86 3.99-.86 1.35 0 2.94.33 1.58.33 2.73.69l-.33 2.25q-1.91-.83-3.79-1.37-1.88-.55-3.83-.55-.96.46-1.33 1.21-.38.74-.38 1.63 0 1.32.79 2.33.79 1 2.06 1.84 1.27.85 2.67 1.64 1.41.79 2.68 1.71 1.27.93 2.06 2.08.79 1.16.79 2.71 0 1.71-.86 3.12-.86 1.4-2.57 2.21-1.72.81-4.32.81"></path><rect width="14.12" height="22.64" x="-7.06" y="-11.32" fill="none" rx="0" ry="0" transform="translate(246.87 376.22)"></rect><path fill="#7c1ec5" d="m255.709 386.643 9.8-22.37h.49l9.8 22.37h-3.59l-2.48-5.94h-9.8l-2.44 5.94Zm4.72-7.19h8.77l-4.35-10.7Z"></path><rect width="20.09" height="22.37" x="-10.04" y="-11.19" fill="none" rx="0" ry="0" transform="translate(266.25 375.96)"></rect><path fill="#7c1ec5" d="M286.459 387.042q-2.74 0-4.98-1.24t-3.56-3.63q-1.32-2.39-1.32-5.86 0-2.7.72-4.72.73-2.01 1.97-3.38 1.23-1.37 2.77-2.21 1.53-.84 3.17-1.22 1.63-.38 3.15-.38 2.77 0 5.01 1.22 2.25 1.22 3.57 3.6 1.32 2.37 1.32 5.84 0 2.7-.73 4.72-.72 2.01-1.98 3.4-1.25 1.38-2.79 2.24-1.53.86-3.16 1.24-1.64.38-3.16.38m.96-1.09q1.98 0 3.38-.96 1.41-.96 2.28-2.47.87-1.52 1.29-3.3.41-1.79.41-3.4 0-2.05-.41-3.88-.42-1.83-1.36-3.22-.94-1.38-2.5-2.18-1.57-.79-3.91-.79-2.22.76-3.67 2.31-1.45 1.55-2.14 3.57-.7 2.01-.7 4.19 0 2.01.42 3.84.41 1.83 1.27 3.25.86 1.42 2.26 2.23t3.38.81"></path><rect width="21.68" height="22.64" x="-10.84" y="-11.32" fill="none" rx="0" ry="0" transform="translate(287.94 376.22)"></rect><path fill="#7c1ec5" d="M310.059 387.043q-2.44 0-3.99-.68-1.56-.68-2.43-1.72-.87-1.04-1.24-2.21-.36-1.17-.44-2.19-.09-1.02-.09-1.62v-13.83h3.37v14.1q0 .62.05 1.5.05.87.31 1.76.27.89.88 1.69.61.79 1.7 1.27 1.09.47 2.8.47 2.84 0 4.51-1.51 1.66-1.52 1.66-5.09v-14.19h1.46v13.4q0 .79-.09 1.92-.08 1.12-.46 2.32-.38 1.21-1.29 2.26-.9 1.06-2.52 1.7-1.62.65-4.19.65"></path><rect width="16.74" height="22.25" x="-8.37" y="-11.13" fill="none" rx="0" ry="0" transform="translate(310.74 376.42)"></rect><path fill="#7c1ec5" d="M324.049 386.642v-21.85h6.24q2.21 0 4.45.62 2.25.61 4.13 1.98 1.88 1.36 3.02 3.56 1.14 2.19 1.14 5.36 0 2.74-.99 4.7-.99 1.97-2.69 3.21-1.7 1.23-3.88 1.83-2.18.59-4.56.59Zm6.2-1.12q2.68 0 4.77-1.06 2.1-1.05 3.3-3.21 1.21-2.17 1.21-5.47 0-2.54-.94-4.55t-2.58-3.37q-1.63-1.35-3.71-1.88-1.15 0-2.62.2-1.47.2-2.4.5v18.54q.47.13 1.32.22.86.08 1.65.08"></path><rect width="18.98" height="21.85" x="-9.49" y="-10.93" fill="none" rx="0" ry="0" transform="translate(334.04 376.22)"></rect><path fill="#7c1ec5" d="M347.409 386.642v-21.85h13.24l-.33 2.22-6.14-1.03q-.96 0-1.78.15-.83.15-1.78.41v8.02h7.32v1.26h-7.32v9.63l10.23-1.02-.33 2.21Z"></path><rect width="13.44" height="21.85" x="-6.72" y="-10.93" fill="none" rx="0" ry="0" transform="translate(354.63 376.22)"></rect><path fill="#7c1ec5" d="m381.999 387.003-14.46-18.08h-.13v17.72h-1.45v-21.85h2.44l12.58 15.88h.13v-15.88h1.45v22.21Z"></path><rect width="16.6" height="22.21" x="-8.3" y="-11.11" fill="none" rx="0" ry="0" transform="translate(374.76 376.4)"></rect><path fill="#7c1ec5" d="M388.499 386.642v-21.85h13.23l-.33 2.22-6.14-1.03q-.95 0-1.78.15-.82.15-1.78.41v8.02h7.33v1.26h-7.33v9.63l10.23-1.02-.33 2.21Z"></path><rect width="13.43" height="21.85" x="-6.71" y="-10.93" fill="none" rx="0" ry="0" transform="translate(395.71 376.22)"></rect></svg></svg>